<svg xmlns="http://www.w3.org/2000/svg" width="240" height="150" viewBox="0 0 240 150"><rect width="240" height="150" fill="#11232d"/><circle cx="65" cy="23" r="3" fill="#79b8ff"/><circle cx="100" cy="23" r="3" fill="#79b8ff"/><circle cx="135" cy="23" r="3" fill="#79b8ff"/><circle cx="170" cy="23" r="3" fill="#79b8ff"/><circle cx="65" cy="58" r="3" fill="#79b8ff"/><circle cx="100" cy="58" r="3" fill="#79b8ff"/><circle cx="135" cy="58" r="3" fill="#79b8ff"/><circle cx="170" cy="58" r="3" fill="#79b8ff"/><circle cx="65" cy="93" r="3" fill="#79b8ff"/><circle cx="100" cy="93" r="3" fill="#79b8ff"/><circle cx="135" cy="93" r="3" fill="#79b8ff"/><circle cx="170" cy="93" r="3" fill="#79b8ff"/><circle cx="65" cy="128" r="3" fill="#79b8ff"/><circle cx="100" cy="128" r="3" fill="#79b8ff"/><circle cx="135" cy="128" r="3" fill="#79b8ff"/><circle cx="170" cy="128" r="3" fill="#79b8ff"/><path d="M65 23h35v35H65V23m35 35h35v35h-35V58" fill="none" stroke="#c9f65a" stroke-width="4"/><text x="82" y="47" text-anchor="middle" font-family="sans-serif" font-size="18" font-weight="600" fill="#c9f65a">X</text><text x="118" y="82" text-anchor="middle" font-family="sans-serif" font-size="18" font-weight="600" fill="#c9f65a">O</text></svg>