<svg xmlns="http://www.w3.org/2000/svg" width="240" height="150" viewBox="0 0 240 150"><rect width="240" height="150" fill="#11232d"/><rect x="65" y="20" width="20" height="20" rx="4" fill="#526b76"/><rect x="87" y="20" width="20" height="20" rx="4" fill="#526b76"/><rect x="109" y="20" width="20" height="20" rx="4" fill="#526b76"/><rect x="131" y="20" width="20" height="20" rx="4" fill="#526b76"/><rect x="153" y="20" width="20" height="20" rx="4" fill="#526b76"/><rect x="65" y="42" width="20" height="20" rx="4" fill="#526b76"/><rect x="87" y="42" width="20" height="20" rx="4" fill="#1c333e"/><rect x="109" y="42" width="20" height="20" rx="4" fill="#1c333e"/><rect x="131" y="42" width="20" height="20" rx="4" fill="#1c333e"/><rect x="153" y="42" width="20" height="20" rx="4" fill="#526b76"/><rect x="65" y="64" width="20" height="20" rx="4" fill="#526b76"/><rect x="87" y="64" width="20" height="20" rx="4" fill="#1c333e"/><rect x="109" y="64" width="20" height="20" rx="4" fill="#1c333e"/><rect x="131" y="64" width="20" height="20" rx="4" fill="#1c333e"/><rect x="153" y="64" width="20" height="20" rx="4" fill="#526b76"/><rect x="65" y="86" width="20" height="20" rx="4" fill="#526b76"/><rect x="87" y="86" width="20" height="20" rx="4" fill="#1c333e"/><rect x="109" y="86" width="20" height="20" rx="4" fill="#1c333e"/><rect x="131" y="86" width="20" height="20" rx="4" fill="#1c333e"/><rect x="153" y="86" width="20" height="20" rx="4" fill="#526b76"/><rect x="65" y="108" width="20" height="20" rx="4" fill="#526b76"/><rect x="87" y="108" width="20" height="20" rx="4" fill="#526b76"/><rect x="109" y="108" width="20" height="20" rx="4" fill="#526b76"/><rect x="131" y="108" width="20" height="20" rx="4" fill="#526b76"/><rect x="153" y="108" width="20" height="20" rx="4" fill="#526b76"/><rect x="89" y="66" width="16" height="16" rx="4" fill="#ffb46b"/><circle cx="120" cy="75" r="6" fill="#c9f65a"/><circle cx="141" cy="51" r="7" fill="#79b8ff"/></svg>